<svg width="38" height="23" viewBox="0 0 38 23" fill="none" xmlns="http://www.w3.org/2000/svg">
<path d="M37.134 21.0431C37.395 21.9249 37.134 22.5739 35.8783 22.5739H31.7233C30.6651 22.5739 30.1784 22.0166 29.9174 21.3958C29.9174 21.3958 27.8011 16.2391 24.8101 12.8953C23.8436 11.9289 23.3992 11.6185 22.8701 11.6185C22.6091 11.6185 22.207 11.9289 22.207 12.8107V21.0431C22.207 22.1012 21.9107 22.5739 21.036 22.5739H14.5037C13.8406 22.5739 13.4455 22.08 13.4455 21.6215C13.4455 20.6198 14.9411 20.387 15.0963 17.5653V11.4421C15.0963 10.1018 14.8564 9.85491 14.3273 9.85491C12.9165 9.85491 9.48806 15.0328 7.45642 20.9584C7.04727 22.1083 6.64517 22.5739 5.57997 22.5739H1.42497C0.239847 22.5739 0 22.0166 0 21.3958C0 20.2953 1.41086 14.8282 6.56757 7.60458C10.003 2.6736 14.8423 1.66893e-05 19.2442 1.66893e-05C21.8896 1.66893e-05 22.2141 0.592579 22.2141 1.61546C22.2141 6.32774 21.9742 6.77217 23.3004 6.77217C23.9142 6.77217 24.9723 6.46178 27.4413 4.08447C30.263 1.26274 30.7286 1.66893e-05 32.3088 1.66893e-05H36.4638C37.6489 1.66893e-05 38.2485 0.59258 37.9029 1.7636C37.1128 4.22556 31.7727 9.29056 31.5328 9.62917C30.9191 10.4193 31.0955 10.772 31.5328 11.4774C31.5399 11.4845 36.6119 18.6234 37.134 21.0431V21.0431Z" fill="white"/>
</svg>
